# xmcd CD database file
#
# Track frame offsets:
#	150
#	23501
#	44972
#	58773
#	69170
#	87760
#	104279
#	121286
#	135520
#	153334
#	165419
#	178928
#
# Disc length: 2591 seconds
#
# Revision: 1
# Processed by: cddbd v1.5.2PL0 Copyright (c) Steve Scherf et al.
# Submitted via: CDex 1.51
#
DISCID=980a1d0c
DTITLE=Various Artist - STTW-3107
DYEAR=1900
DGENRE=Blues
TTITLE0=Wizzard - I Wish It Could Be Christmas Everyday
TTITLE1=Wham - Last Christmas
TTITLE2=Eartha Kitt - Santa Baby
TTITLE3=Frank Sinatra - Jingle Bells
TTITLE4=Cliff Richard - Mistletoe And Wine
TTITLE5=Crystals The - Santa Claus Is Coming To Town
TTITLE6=Slade - Merry Christmas Everybody
TTITLE7=Jona Lewie - Stop The Cavalry
TTITLE8=Shakin' Stevens - Merry Christmas Everyone
TTITLE9=Crystals The - Rudolph The Red Nose Reindeer
TTITLE10=Die Toten Hosen - Auld Lang Syne
TTITLE11=Traditional - Auld Lang Syne
EXTD=
EXTT0=
EXTT1=
EXTT2=
EXTT3=
EXTT4=
EXTT5=
EXTT6=
EXTT7=
EXTT8=
EXTT9=
EXTT10=
EXTT11=
PLAYORDER=
